<svg width="238" height="65" viewBox="0 0 238 65" fill="none" xmlns="http://www.w3.org/2000/svg">
<line x1="0.000131863" y1="54.5" x2="236" y2="54.5124" stroke="#393939" stroke-width="5"/>
<path d="M8.9375 50V45.1953L12.4766 44.4453V21.4531L8.9375 20.7031V15.875H25.5312C28.25 15.875 30.6094 16.3516 32.6094 17.3047C34.6094 18.2578 36.1484 19.5859 37.2266 21.2891C38.3203 22.9766 38.8672 24.9453 38.8672 27.1953C38.8672 29.4453 38.3203 31.4141 37.2266 33.1016C36.1484 34.7891 34.6094 36.1016 32.6094 37.0391C30.6094 37.9766 28.25 38.4453 25.5312 38.4453H20.7031V44.4453L24.2422 45.1953V50H8.9375ZM20.7031 32.1406H25.5312C27.2031 32.1406 28.4688 31.6875 29.3281 30.7812C30.2031 29.8594 30.6406 28.6797 30.6406 27.2422C30.6406 25.7578 30.2031 24.5391 29.3281 23.5859C28.4688 22.6328 27.2031 22.1562 25.5312 22.1562H20.7031V32.1406ZM49.1094 60.2422C47.7188 60.2422 46.25 60.0156 44.7031 59.5625L45.6875 53.6797C46.2656 53.8359 46.8672 53.9141 47.4922 53.9141C48.4922 53.9141 49.375 53.7266 50.1406 53.3516C50.9219 52.9922 51.4141 52.4297 51.6172 51.6641L51.8516 50.7734L43.6953 29.9609L40.2969 29.4688V24.6406H55.5312V29.4688L52.3906 29.9375L55.7891 40.2031L55.8359 40.3906H55.9766L59.9844 29.8672L57.0781 29.4688V24.6406H70.9297V29.4688L67.9297 29.8906L58.4375 53.7031C57.9844 54.8438 57.375 55.9062 56.6094 56.8906C55.8438 57.8906 54.8516 58.6953 53.6328 59.3047C52.4141 59.9297 50.9062 60.2422 49.1094 60.2422ZM88.4375 50.4922C84.9062 50.4922 81.9141 49.8047 79.4609 48.4297C77.0234 47.0547 75.1641 45.1484 73.8828 42.7109C72.6016 40.2578 71.9609 37.4219 71.9609 34.2031V32.6562C71.9609 29.2656 72.5938 26.2734 73.8594 23.6797C75.125 21.0859 76.9609 19.0547 79.3672 17.5859C81.7734 16.1172 84.6797 15.3828 88.0859 15.3828C90.4141 15.3828 92.75 15.7422 95.0938 16.4609C97.4375 17.1641 99.5 18.2812 101.281 19.8125V27.8047H95.4219L94.1797 23.4688C93.6484 22.9219 92.8906 22.4688 91.9062 22.1094C90.9375 21.75 89.8438 21.5703 88.625 21.5703C85.7969 21.5703 83.6719 22.5938 82.25 24.6406C80.8281 26.6719 80.1172 29.3281 80.1172 32.6094V34.2031C80.1172 37.2969 80.8516 39.7578 82.3203 41.5859C83.8047 43.4141 85.9531 44.3281 88.7656 44.3281C89.75 44.3281 90.7266 44.2266 91.6953 44.0234C92.6641 43.8203 93.4219 43.5938 93.9688 43.3438V38.9375L90.125 38.4688V32.7969H102.219V46.9531C100.375 48.1406 98.2891 49.0312 95.9609 49.625C93.6484 50.2031 91.1406 50.4922 88.4375 50.4922ZM115.719 50.4922C113.094 50.4922 111.031 49.6641 109.531 48.0078C108.031 46.3516 107.281 43.7891 107.281 40.3203V30.2188L104.562 29.4688V24.6406H115.508V40.3672C115.508 42.9141 116.555 44.1875 118.648 44.1875C119.258 44.1875 119.859 44.0781 120.453 43.8594C121.062 43.625 121.602 43.2812 122.07 42.8281V30.2188L119.305 29.4688V24.6406H130.297V44.4453L133.461 45.1953V50H123.148L122.609 47.1172C120.922 49.3672 118.625 50.4922 115.719 50.4922ZM135.172 50V45.1953L138.758 44.3281V21.5938L135.172 20.7031V15.875H151.156C154.234 15.875 156.961 16.5938 159.336 18.0312C161.711 19.4531 163.57 21.4297 164.914 23.9609C166.258 26.4766 166.93 29.3828 166.93 32.6797V33.2188C166.93 36.5156 166.258 39.4297 164.914 41.9609C163.57 44.4766 161.711 46.4453 159.336 47.8672C156.961 49.2891 154.234 50 151.156 50H135.172ZM146.984 43.7656H150.734C153.328 43.7656 155.297 42.8047 156.641 40.8828C157.984 38.9453 158.656 36.3906 158.656 33.2188V32.6562C158.656 29.5 157.984 26.9609 156.641 25.0391C155.297 23.1016 153.328 22.1328 150.734 22.1328H146.984V43.7656ZM182.516 50.4922C180.031 50.4922 177.859 49.9609 176 48.8984C174.156 47.8203 172.719 46.3516 171.688 44.4922C170.672 42.6328 170.164 40.5312 170.164 38.1875V37.3203C170.164 34.7422 170.617 32.4609 171.523 30.4766C172.43 28.4922 173.758 26.9453 175.508 25.8359C177.258 24.7109 179.406 24.1562 181.953 24.1719C185.391 24.1719 188.031 25.1641 189.875 27.1484C191.719 29.1172 192.641 31.9688 192.641 35.7031V39.9453H178.695L178.672 40.1094C178.844 41.2969 179.359 42.2812 180.219 43.0625C181.078 43.8438 182.312 44.2344 183.922 44.2344C185.953 44.2344 188.078 43.7266 190.297 42.7109L192.172 47.6797C191.031 48.4922 189.641 49.1641 188 49.6953C186.359 50.2266 184.531 50.4922 182.516 50.4922ZM178.695 34.8594H185.141V34.25C185.141 32.8906 184.93 31.8672 184.508 31.1797C184.086 30.4766 183.297 30.125 182.141 30.125C180.891 30.125 180.016 30.5625 179.516 31.4375C179.031 32.2969 178.727 33.3984 178.602 34.7422L178.695 34.8594ZM208.508 50L197.82 21.0781L194.586 20.7031V15.875H209.891V20.7031L206.844 21.1719L212.961 40.3438L213.289 41.6797H213.43L213.734 40.4141L219.664 21.1719L216.008 20.7031V15.875H230.305V20.7031L226.977 21.0781L217.414 50H208.508Z" fill="#595959"/>
<path d="M8.9375 50H7.9375V51H8.9375V50ZM8.9375 45.1953L8.73018 44.217L7.9375 44.385V45.1953H8.9375ZM12.4766 44.4453L12.6839 45.4236L13.4766 45.2556V44.4453H12.4766ZM12.4766 21.4531H13.4766V20.6428L12.6839 20.4749L12.4766 21.4531ZM8.9375 20.7031H7.9375V21.5134L8.73018 21.6814L8.9375 20.7031ZM8.9375 15.875V14.875H7.9375V15.875H8.9375ZM37.2266 21.2891L36.3816 21.824L36.3874 21.833L37.2266 21.2891ZM37.2266 33.1016L36.3874 32.5577L36.3839 32.5632L37.2266 33.1016ZM20.7031 38.4453V37.4453H19.7031V38.4453H20.7031ZM20.7031 44.4453H19.7031V45.2556L20.4958 45.4236L20.7031 44.4453ZM24.2422 45.1953H25.2422V44.385L24.4495 44.217L24.2422 45.1953ZM24.2422 50V51H25.2422V50H24.2422ZM20.7031 32.1406H19.7031V33.1406H20.7031V32.1406ZM29.3281 30.7812L28.6028 30.0928L28.6025 30.0932L29.3281 30.7812ZM29.3281 23.5859L28.5854 24.2556L28.5915 24.2622L29.3281 23.5859ZM20.7031 22.1562V21.1562H19.7031V22.1562H20.7031ZM9.9375 50V45.1953H7.9375V50H9.9375ZM9.14482 46.1736L12.6839 45.4236L12.2692 43.467L8.73018 44.217L9.14482 46.1736ZM13.4766 44.4453V21.4531H11.4766V44.4453H13.4766ZM12.6839 20.4749L9.14482 19.7249L8.73018 21.6814L12.2692 22.4314L12.6839 20.4749ZM9.9375 20.7031V15.875H7.9375V20.7031H9.9375ZM8.9375 16.875H25.5312V14.875H8.9375V16.875ZM25.5312 16.875C28.1343 16.875 30.3405 17.3312 32.1792 18.2074L33.0396 16.402C30.8782 15.3719 28.3657 14.875 25.5312 14.875V16.875ZM32.1792 18.2074C34.0265 19.0878 35.4142 20.2957 36.3816 21.8239L38.0715 20.7542C36.8827 18.8762 35.1923 17.4278 33.0396 16.402L32.1792 18.2074ZM36.3874 21.833C37.364 23.3397 37.8672 25.1146 37.8672 27.1953H39.8672C39.8672 24.776 39.2766 22.6135 38.0657 20.7452L36.3874 21.833ZM37.8672 27.1953C37.8672 29.276 37.364 31.051 36.3874 32.5577L38.0657 33.6455C39.2766 31.7772 39.8672 29.6146 39.8672 27.1953H37.8672ZM36.3839 32.5632C35.418 34.075 34.0319 35.2679 32.1849 36.1336L33.0338 37.9445C35.1869 36.9353 36.8789 35.5031 38.0693 33.64L36.3839 32.5632ZM32.1849 36.1336C30.3448 36.9962 28.1364 37.4453 25.5312 37.4453V39.4453C28.3636 39.4453 30.8739 38.957 33.0338 37.9445L32.1849 36.1336ZM25.5312 37.4453H20.7031V39.4453H25.5312V37.4453ZM19.7031 38.4453V44.4453H21.7031V38.4453H19.7031ZM20.4958 45.4236L24.0349 46.1736L24.4495 44.217L20.9104 43.467L20.4958 45.4236ZM23.2422 45.1953V50H25.2422V45.1953H23.2422ZM24.2422 49H8.9375V51H24.2422V49ZM20.7031 33.1406H25.5312V31.1406H20.7031V33.1406ZM25.5312 33.1406C27.3809 33.1406 28.948 32.6354 30.0537 31.4693L28.6025 30.0932C27.9895 30.7396 27.0254 31.1406 25.5312 31.1406V33.1406ZM30.0534 31.4697C31.1283 30.3372 31.6406 28.8996 31.6406 27.2422H29.6406C29.6406 28.4598 29.278 29.3815 28.6028 30.0928L30.0534 31.4697ZM31.6406 27.2422C31.6406 25.5469 31.1341 24.0745 30.0648 22.9097L28.5915 24.2622C29.2722 25.0037 29.6406 25.9688 29.6406 27.2422H31.6406ZM30.0708 22.9163C28.9685 21.6937 27.3955 21.1562 25.5312 21.1562V23.1562C27.0107 23.1562 27.969 23.5719 28.5854 24.2556L30.0708 22.9163ZM25.5312 21.1562H20.7031V23.1562H25.5312V21.1562ZM19.7031 22.1562V32.1406H21.7031V22.1562H19.7031ZM44.7031 59.5625L43.7168 59.3975L43.5704 60.2727L44.422 60.5222L44.7031 59.5625ZM45.6875 53.6797L45.9484 52.7143L44.8833 52.4265L44.7012 53.5147L45.6875 53.6797ZM50.1406 53.3516L49.7227 52.4431L49.7117 52.4482L49.7008 52.4535L50.1406 53.3516ZM51.6172 51.6641L52.5838 51.9205L52.5843 51.9186L51.6172 51.6641ZM51.8516 50.7734L52.8186 51.0279L52.9017 50.7124L52.7826 50.4086L51.8516 50.7734ZM43.6953 29.9609L44.6264 29.5961L44.4142 29.0546L43.8386 28.9713L43.6953 29.9609ZM40.2969 29.4688H39.2969V30.3344L40.1535 30.4584L40.2969 29.4688ZM40.2969 24.6406V23.6406H39.2969V24.6406H40.2969ZM55.5312 24.6406H56.5312V23.6406H55.5312V24.6406ZM55.5312 29.4688L55.6789 30.4578L56.5312 30.3306V29.4688H55.5312ZM52.3906 29.9375L52.243 28.9485L51.0679 29.1238L51.4413 30.2518L52.3906 29.9375ZM55.7891 40.2031L56.7592 39.9606L56.7501 39.9243L56.7384 39.8888L55.7891 40.2031ZM55.8359 40.3906L54.8658 40.6332L55.0552 41.3906H55.8359V40.3906ZM55.9766 40.3906V41.3906H56.6658L56.9111 40.7465L55.9766 40.3906ZM59.9844 29.8672L60.9189 30.2231L61.3667 29.0473L60.1202 28.8765L59.9844 29.8672ZM57.0781 29.4688H56.0781V30.341L56.9423 30.4595L57.0781 29.4688ZM57.0781 24.6406V23.6406H56.0781V24.6406H57.0781ZM70.9297 24.6406H71.9297V23.6406H70.9297V24.6406ZM70.9297 29.4688L71.0689 30.459L71.9297 30.338V29.4688H70.9297ZM67.9297 29.8906L67.7904 28.9004L67.2157 28.9812L67.0008 29.5203L67.9297 29.8906ZM58.4375 53.7031L57.5086 53.3328L57.5081 53.3339L58.4375 53.7031ZM56.6094 56.8906L55.82 56.2767L55.8154 56.2827L56.6094 56.8906ZM53.6328 59.3047L53.1856 58.4102L53.1765 58.4149L53.6328 59.3047ZM49.1094 59.2422C47.8276 59.2422 46.454 59.0334 44.9842 58.6028L44.422 60.5222C46.046 60.9979 47.6099 61.2422 49.1094 61.2422V59.2422ZM45.6894 59.7275L46.6738 53.8447L44.7012 53.5147L43.7168 59.3975L45.6894 59.7275ZM45.4266 54.6451C46.0934 54.8253 46.7829 54.9141 47.4922 54.9141V52.9141C46.9515 52.9141 46.4378 52.8466 45.9484 52.7143L45.4266 54.6451ZM47.4922 54.9141C48.6184 54.9141 49.6562 54.7024 50.5805 54.2496L49.7008 52.4535C49.0938 52.7508 48.366 52.9141 47.4922 52.9141V54.9141ZM50.5585 54.2601C51.5843 53.7882 52.297 53.0014 52.5837 51.9205L50.6506 51.4076C50.5311 51.858 50.2594 52.1962 49.7227 52.4431L50.5585 54.2601ZM52.5843 51.9186L52.8186 51.0279L50.8845 50.5189L50.6501 51.4096L52.5843 51.9186ZM52.7826 50.4086L44.6264 29.5961L42.7643 30.3258L50.9205 51.1383L52.7826 50.4086ZM43.8386 28.9713L40.4402 28.4791L40.1535 30.4584L43.552 30.9506L43.8386 28.9713ZM41.2969 29.4688V24.6406H39.2969V29.4688H41.2969ZM40.2969 25.6406H55.5312V23.6406H40.2969V25.6406ZM54.5312 24.6406V29.4688H56.5312V24.6406H54.5312ZM55.3836 28.4797L52.243 28.9485L52.5382 30.9265L55.6789 30.4578L55.3836 28.4797ZM51.4413 30.2518L54.8397 40.5174L56.7384 39.8888L53.34 29.6232L51.4413 30.2518ZM54.8189 40.4457L54.8658 40.6332L56.8061 40.1481L56.7592 39.9606L54.8189 40.4457ZM55.8359 41.3906H55.9766V39.3906H55.8359V41.3906ZM56.9111 40.7465L60.9189 30.2231L59.0499 29.5113L55.042 40.0347L56.9111 40.7465ZM60.1202 28.8765L57.214 28.478L56.9423 30.4595L59.8485 30.8579L60.1202 28.8765ZM58.0781 29.4688V24.6406H56.0781V29.4688H58.0781ZM57.0781 25.6406H70.9297V23.6406H57.0781V25.6406ZM69.9297 24.6406V29.4688H71.9297V24.6406H69.9297ZM70.7904 28.4785L67.7904 28.9004L68.0689 30.8809L71.0689 30.459L70.7904 28.4785ZM67.0008 29.5203L57.5086 53.3328L59.3664 54.0734L68.8586 30.2609L67.0008 29.5203ZM57.5081 53.3339C57.0905 54.3854 56.5286 55.3657 55.82 56.2767L57.3987 57.5046C58.2214 56.4468 58.8783 55.3021 59.3669 54.0723L57.5081 53.3339ZM55.8154 56.2827C55.1495 57.1524 54.2798 57.8631 53.1856 58.4103L54.08 60.1991C55.4233 59.5275 56.538 58.6288 57.4034 57.4985L55.8154 56.2827ZM53.1765 58.4149C52.136 58.9485 50.7952 59.2422 49.1094 59.2422V61.2422C51.0173 61.2422 52.6921 60.9109 54.0891 60.1945L53.1765 58.4149ZM79.4609 48.4297L78.9696 49.3007L78.972 49.302L79.4609 48.4297ZM73.8828 42.7109L72.9964 43.1739L72.9976 43.1762L73.8828 42.7109ZM95.0938 16.4609L94.8006 17.417L94.8064 17.4188L95.0938 16.4609ZM101.281 19.8125H102.281V19.3534L101.933 19.0542L101.281 19.8125ZM101.281 27.8047V28.8047H102.281V27.8047H101.281ZM95.4219 27.8047L94.4605 28.0801L94.6681 28.8047H95.4219V27.8047ZM94.1797 23.4688L95.141 23.1933L95.0719 22.952L94.897 22.772L94.1797 23.4688ZM91.9062 22.1094L91.5584 23.047L91.5633 23.0487L91.9062 22.1094ZM82.25 24.6406L83.0692 25.2141L83.0713 25.2111L82.25 24.6406ZM82.3203 41.5859L81.5407 42.2123L81.544 42.2163L82.3203 41.5859ZM93.9688 43.3438L94.3845 44.2532L94.9688 43.9861V43.3438H93.9688ZM93.9688 38.9375H94.9688V38.052L94.0898 37.9449L93.9688 38.9375ZM90.125 38.4688H89.125V39.3542L90.0039 39.4614L90.125 38.4688ZM90.125 32.7969V31.7969H89.125V32.7969H90.125ZM102.219 32.7969H103.219V31.7969H102.219V32.7969ZM102.219 46.9531L102.76 47.7938L103.219 47.4985V46.9531H102.219ZM95.9609 49.625L96.2035 50.5952L96.2081 50.594L95.9609 49.625ZM88.4375 49.4922C85.0344 49.4922 82.2201 48.8298 79.9499 47.5574L78.972 49.302C81.608 50.7795 84.7781 51.4922 88.4375 51.4922V49.4922ZM79.9523 47.5587C77.6794 46.2766 75.9582 44.5099 74.768 42.2457L72.9976 43.1762C74.37 45.7869 76.3674 47.8328 78.9696 49.3007L79.9523 47.5587ZM74.7692 42.248C73.5739 39.9594 72.9609 37.287 72.9609 34.2031H70.9609C70.9609 37.5567 71.6292 40.5562 72.9964 43.1739L74.7692 42.248ZM72.9609 34.2031V32.6562H70.9609V34.2031H72.9609ZM72.9609 32.6562C72.9609 29.3912 73.5698 26.5535 74.7581 24.1182L72.9607 23.2412C71.6177 25.9934 70.9609 29.1401 70.9609 32.6562H72.9609ZM74.7581 24.1182C75.9421 21.6917 77.6489 19.8063 79.8882 18.4395L78.8462 16.7324C76.273 18.3031 74.3079 20.4802 72.9607 23.2412L74.7581 24.1182ZM79.8882 18.4395C82.1077 17.0847 84.8251 16.3828 88.0859 16.3828V14.3828C84.5343 14.3828 81.4392 15.1496 78.8462 16.7324L79.8882 18.4395ZM88.0859 16.3828C90.3095 16.3828 92.5468 16.7258 94.8006 17.417L95.3869 15.5049C92.9532 14.7585 90.5186 14.3828 88.0859 14.3828V16.3828ZM94.8064 17.4188C97.0217 18.0834 98.9588 19.1347 100.629 20.5708L101.933 19.0542C100.041 17.4278 97.8533 16.2448 95.3811 15.5031L94.8064 17.4188ZM100.281 19.8125V27.8047H102.281V19.8125H100.281ZM101.281 26.8047H95.4219V28.8047H101.281V26.8047ZM96.3832 27.5293L95.141 23.1933L93.2184 23.7442L94.4605 28.0801L96.3832 27.5293ZM94.897 22.772C94.2291 22.0845 93.325 21.5628 92.2492 21.17L91.5633 23.0487C92.4562 23.3747 93.0677 23.7593 93.4624 24.1655L94.897 22.772ZM92.2541 21.1718C91.156 20.7645 89.9416 20.5703 88.625 20.5703V22.5703C89.7459 22.5703 90.719 22.7355 91.5584 23.0469L92.2541 21.1718ZM88.625 20.5703C85.5205 20.5703 83.0649 21.7147 81.4287 24.0701L83.0713 25.2111C84.2788 23.4728 86.0733 22.5703 88.625 22.5703V20.5703ZM81.4308 24.0672C79.8585 26.3132 79.1172 29.1885 79.1172 32.6094H81.1172C81.1172 29.4678 81.7977 27.0305 83.0692 25.2141L81.4308 24.0672ZM79.1172 32.6094V34.2031H81.1172V32.6094H79.1172ZM79.1172 34.2031C79.1172 37.4516 79.8894 40.1569 81.5407 42.2123L83.0999 40.9596C81.8137 39.3587 81.1172 37.1422 81.1172 34.2031H79.1172ZM81.544 42.2163C83.2557 44.3244 85.7169 45.3281 88.7656 45.3281V43.3281C86.1894 43.3281 84.3536 42.5037 83.0966 40.9556L81.544 42.2163ZM88.7656 45.3281C89.8193 45.3281 90.8647 45.2194 91.9005 45.0022L91.4901 43.0447C90.5885 43.2338 89.6807 43.3281 88.7656 43.3281V45.3281ZM91.9005 45.0022C92.9017 44.7922 93.7411 44.5474 94.3845 44.2532L93.553 42.4343C93.1027 42.6401 92.4264 42.8484 91.4901 43.0447L91.9005 45.0022ZM94.9688 43.3438V38.9375H92.9688V43.3438H94.9688ZM94.0898 37.9449L90.2461 37.4761L90.0039 39.4614L93.8477 39.9301L94.0898 37.9449ZM91.125 38.4688V32.7969H89.125V38.4688H91.125ZM90.125 33.7969H102.219V31.7969H90.125V33.7969ZM101.219 32.7969V46.9531H103.219V32.7969H101.219ZM101.677 46.1124C99.9323 47.2363 97.9475 48.0864 95.7138 48.656L96.2081 50.594C98.6306 49.9761 100.818 49.045 102.76 47.7938L101.677 46.1124ZM95.7184 48.6549C93.495 49.2107 91.0696 49.4922 88.4375 49.4922V51.4922C91.2117 51.4922 93.8019 51.1955 96.2035 50.5951L95.7184 48.6549ZM109.531 48.0078L108.79 48.6791L109.531 48.0078ZM107.281 30.2188H108.281V29.4573L107.547 29.2548L107.281 30.2188ZM104.562 29.4688H103.562V30.2302L104.297 30.4327L104.562 29.4688ZM104.562 24.6406V23.6406H103.562V24.6406H104.562ZM115.508 24.6406H116.508V23.6406H115.508V24.6406ZM120.453 43.8594L120.799 44.7977L120.805 44.7953L120.812 44.7927L120.453 43.8594ZM122.07 42.8281L122.765 43.5471L123.07 43.2523V42.8281H122.07ZM122.07 30.2188H123.07V29.4538L122.332 29.2536L122.07 30.2188ZM119.305 29.4688H118.305V30.2337L119.043 30.4339L119.305 29.4688ZM119.305 24.6406V23.6406H118.305V24.6406H119.305ZM130.297 24.6406H131.297V23.6406H130.297V24.6406ZM130.297 44.4453H129.297V45.236L130.066 45.4184L130.297 44.4453ZM133.461 45.1953H134.461V44.4046L133.692 44.2223L133.461 45.1953ZM133.461 50V51H134.461V50H133.461ZM123.148 50L122.165 50.1838L122.318 51H123.148V50ZM122.609 47.1172L123.592 46.9334L123.174 44.6974L121.809 46.5172L122.609 47.1172ZM115.719 49.4922C113.322 49.4922 111.549 48.7465 110.272 47.3365L108.79 48.6791C110.513 50.5816 112.865 51.4922 115.719 51.4922V49.4922ZM110.272 47.3365C109.01 45.9427 108.281 43.6726 108.281 40.3203H106.281C106.281 43.9055 107.052 46.7604 108.79 48.6791L110.272 47.3365ZM108.281 40.3203V30.2188H106.281V40.3203H108.281ZM107.547 29.2548L104.828 28.5048L104.297 30.4327L107.015 31.1827L107.547 29.2548ZM105.562 29.4688V24.6406H103.562V29.4688H105.562ZM104.562 25.6406H115.508V23.6406H104.562V25.6406ZM114.508 24.6406V40.3672H116.508V24.6406H114.508ZM114.508 40.3672C114.508 41.7523 114.789 42.9771 115.52 43.8675C116.283 44.7954 117.39 45.1875 118.648 45.1875V43.1875C117.813 43.1875 117.35 42.9429 117.065 42.5974C116.751 42.2143 116.508 41.5289 116.508 40.3672H114.508ZM118.648 45.1875C119.38 45.1875 120.099 45.0557 120.799 44.7977L120.107 42.921C119.62 43.1006 119.135 43.1875 118.648 43.1875V45.1875ZM120.812 44.7927C121.547 44.5102 122.2 44.0937 122.765 43.5471L121.375 42.1091C121.003 42.4688 120.578 42.7398 120.094 42.926L120.812 44.7927ZM123.07 42.8281V30.2188H121.07V42.8281H123.07ZM122.332 29.2536L119.566 28.5036L119.043 30.4339L121.809 31.1839L122.332 29.2536ZM120.305 29.4688V24.6406H118.305V29.4688H120.305ZM119.305 25.6406H130.297V23.6406H119.305V25.6406ZM129.297 24.6406V44.4453H131.297V24.6406H129.297ZM130.066 45.4184L133.23 46.1684L133.692 44.2223L130.528 43.4723L130.066 45.4184ZM132.461 45.1953V50H134.461V45.1953H132.461ZM133.461 49H123.148V51H133.461V49ZM124.131 49.8162L123.592 46.9334L121.626 47.301L122.165 50.1838L124.131 49.8162ZM121.809 46.5172C120.318 48.5057 118.323 49.4922 115.719 49.4922V51.4922C118.927 51.4922 121.526 50.2287 123.409 47.7172L121.809 46.5172ZM135.172 50H134.172V51H135.172V50ZM135.172 45.1953L134.937 44.2233L134.172 44.4083V45.1953H135.172ZM138.758 44.3281L138.993 45.3001L139.758 45.1151V44.3281H138.758ZM138.758 21.5938H139.758V20.8117L138.999 20.6232L138.758 21.5938ZM135.172 20.7031H134.172V21.4851L134.931 21.6736L135.172 20.7031ZM135.172 15.875V14.875H134.172V15.875H135.172ZM159.336 18.0312L158.818 18.8868L158.822 18.8892L159.336 18.0312ZM164.914 23.9609L164.031 24.4298L164.032 24.4321L164.914 23.9609ZM164.914 41.9609L165.796 42.4321L165.797 42.4298L164.914 41.9609ZM146.984 43.7656H145.984V44.7656H146.984V43.7656ZM156.641 40.8828L157.46 41.4558L157.462 41.4527L156.641 40.8828ZM156.641 25.0391L155.819 25.609L155.821 25.6121L156.641 25.0391ZM146.984 22.1328V21.1328H145.984V22.1328H146.984ZM136.172 50V45.1953H134.172V50H136.172ZM135.407 46.1673L138.993 45.3001L138.523 43.3561L134.937 44.2233L135.407 46.1673ZM139.758 44.3281V21.5938H137.758V44.3281H139.758ZM138.999 20.6232L135.413 19.7326L134.931 21.6736L138.517 22.5643L138.999 20.6232ZM136.172 20.7031V15.875H134.172V20.7031H136.172ZM135.172 16.875H151.156V14.875H135.172V16.875ZM151.156 16.875C154.072 16.875 156.616 17.5538 158.818 18.8868L159.854 17.1757C157.306 15.6337 154.396 14.875 151.156 14.875V16.875ZM158.822 18.8892C161.035 20.2141 162.769 22.0536 164.031 24.4298L165.797 23.492C164.371 20.8058 162.387 18.6921 159.85 17.1733L158.822 18.8892ZM164.032 24.4321C165.287 26.7816 165.93 29.5214 165.93 32.6797H167.93C167.93 29.2442 167.229 26.1715 165.796 23.4898L164.032 24.4321ZM165.93 32.6797V33.2188H167.93V32.6797H165.93ZM165.93 33.2188C165.93 36.3769 165.287 39.1256 164.031 41.492L165.797 42.4298C167.229 39.7338 167.93 36.6544 167.93 33.2188H165.93ZM164.032 41.4898C162.771 43.8505 161.037 45.6834 158.822 47.0092L159.85 48.7252C162.385 47.2072 164.37 45.1026 165.796 42.4321L164.032 41.4898ZM158.822 47.0092C156.619 48.328 154.074 49 151.156 49V51C154.394 51 157.302 50.2501 159.85 48.7252L158.822 47.0092ZM151.156 49H135.172V51H151.156V49ZM146.984 44.7656H150.734V42.7656H146.984V44.7656ZM150.734 44.7656C153.614 44.7656 155.907 43.6768 157.46 41.4558L155.821 40.3098C154.686 41.9326 153.042 42.7656 150.734 42.7656V44.7656ZM157.462 41.4527C158.956 39.2989 159.656 36.5253 159.656 33.2188H157.656C157.656 36.2559 157.013 38.5917 155.819 40.3129L157.462 41.4527ZM159.656 33.2188V32.6562H157.656V33.2188H159.656ZM159.656 32.6562C159.656 29.3646 158.956 26.6051 157.46 24.466L155.821 25.6121C157.013 27.3167 157.656 29.6354 157.656 32.6562H159.656ZM157.462 24.4692C155.911 22.2322 153.618 21.1328 150.734 21.1328V23.1328C153.039 23.1328 154.683 23.9709 155.819 25.609L157.462 24.4692ZM150.734 21.1328H146.984V23.1328H150.734V21.1328ZM145.984 22.1328V43.7656H147.984V22.1328H145.984ZM176 48.8984L175.495 49.7617L175.504 49.7667L176 48.8984ZM171.688 44.4922L170.81 44.9716L170.813 44.9772L171.688 44.4922ZM175.508 25.8359L176.043 26.6805L176.049 26.6771L175.508 25.8359ZM181.953 24.1719L181.947 25.1719H181.953V24.1719ZM189.875 27.1484L189.142 27.8291L189.145 27.832L189.875 27.1484ZM192.641 39.9453V40.9453H193.641V39.9453H192.641ZM178.695 39.9453V38.9453H177.828L177.705 39.8039L178.695 39.9453ZM178.672 40.1094L177.682 39.968L177.662 40.1103L177.682 40.2526L178.672 40.1094ZM190.297 42.7109L191.232 42.3579L190.854 41.3559L189.881 41.8017L190.297 42.7109ZM192.172 47.6797L192.752 48.4942L193.379 48.0473L193.107 47.3266L192.172 47.6797ZM178.695 34.8594L177.914 35.4841L178.215 35.8594H178.695V34.8594ZM185.141 34.8594V35.8594H186.141V34.8594H185.141ZM184.508 31.1797L183.65 31.6942L183.655 31.7027L184.508 31.1797ZM179.516 31.4375L178.647 30.9414L178.644 30.9465L179.516 31.4375ZM178.602 34.7422L177.606 34.6496L177.568 35.0516L177.821 35.3669L178.602 34.7422ZM182.516 49.4922C180.177 49.4922 178.182 48.9934 176.496 48.0302L175.504 49.7667C177.537 50.9285 179.885 51.4922 182.516 51.4922V49.4922ZM176.505 48.0352C174.815 47.0472 173.506 45.7088 172.562 44.0072L170.813 44.9772C171.932 46.9943 173.497 48.5934 175.495 49.7617L176.505 48.0352ZM172.565 44.0128C171.638 42.3156 171.164 40.3819 171.164 38.1875H169.164C169.164 40.6806 169.706 42.95 170.81 44.9716L172.565 44.0128ZM171.164 38.1875V37.3203H169.164V38.1875H171.164ZM171.164 37.3203C171.164 34.8598 171.596 32.7244 172.433 30.892L170.614 30.0611C169.638 32.1975 169.164 34.6246 169.164 37.3203H171.164ZM172.433 30.892C173.263 29.0741 174.466 27.6805 176.043 26.6805L174.972 24.9913C173.05 26.2101 171.596 27.9103 170.614 30.0611L172.433 30.892ZM176.049 26.6771C177.602 25.6783 179.55 25.1572 181.947 25.1719L181.959 23.1719C179.262 23.1553 176.913 23.7436 174.967 24.9948L176.049 26.6771ZM181.953 25.1719C185.192 25.1719 187.536 26.1001 189.142 27.8291L190.608 26.4678C188.527 24.228 185.589 23.1719 181.953 23.1719V25.1719ZM189.145 27.832C190.758 29.5543 191.641 32.1241 191.641 35.7031H193.641C193.641 31.8134 192.679 28.6801 190.605 26.4649L189.145 27.832ZM191.641 35.7031V39.9453H193.641V35.7031H191.641ZM192.641 38.9453H178.695V40.9453H192.641V38.9453ZM177.705 39.8039L177.682 39.968L179.662 40.2508L179.685 40.0867L177.705 39.8039ZM177.682 40.2526C177.886 41.6615 178.509 42.8596 179.546 43.8024L180.891 42.3226C180.21 41.7029 179.801 40.9322 179.662 39.9661L177.682 40.2526ZM179.546 43.8024C180.65 44.8062 182.16 45.2344 183.922 45.2344V43.2344C182.465 43.2344 181.506 42.8813 180.891 42.3226L179.546 43.8024ZM183.922 45.2344C186.123 45.2344 188.39 44.6838 190.713 43.6202L189.881 41.8017C187.767 42.7693 185.784 43.2344 183.922 43.2344V45.2344ZM189.361 43.064L191.236 48.0327L193.107 47.3266L191.232 42.3579L189.361 43.064ZM191.592 46.8652C190.551 47.6066 189.257 48.2372 187.692 48.7439L188.308 50.6467C190.024 50.091 191.512 49.3778 192.752 48.4942L191.592 46.8652ZM187.692 48.7439C186.166 49.2381 184.444 49.4922 182.516 49.4922V51.4922C184.619 51.4922 186.553 51.2151 188.308 50.6467L187.692 48.7439ZM178.695 35.8594H185.141V33.8594H178.695V35.8594ZM186.141 34.8594V34.25H184.141V34.8594H186.141ZM186.141 34.25C186.141 32.8183 185.924 31.5756 185.36 30.6567L183.655 31.7027C183.935 32.1588 184.141 32.963 184.141 34.25H186.141ZM185.365 30.6652C184.694 29.5456 183.489 29.125 182.141 29.125V31.125C183.105 31.125 183.478 31.4076 183.65 31.6942L185.365 30.6652ZM182.141 29.125C180.633 29.125 179.37 29.6761 178.647 30.9414L180.384 31.9336C180.661 31.4489 181.149 31.125 182.141 31.125V29.125ZM178.644 30.9465C178.071 31.9647 177.739 33.2142 177.606 34.6496L179.597 34.8348C179.714 33.5826 179.992 32.629 180.387 31.9285L178.644 30.9465ZM177.821 35.3669L177.914 35.4841L179.476 34.2347L179.382 34.1175L177.821 35.3669ZM208.508 50L207.57 50.3466L207.811 51H208.508V50ZM197.82 21.0781L198.758 20.7315L198.545 20.1555L197.935 20.0848L197.82 21.0781ZM194.586 20.7031H193.586V21.5939L194.471 21.6965L194.586 20.7031ZM194.586 15.875V14.875H193.586V15.875H194.586ZM209.891 15.875H210.891V14.875H209.891V15.875ZM209.891 20.7031L210.043 21.6915L210.891 21.561V20.7031H209.891ZM206.844 21.1719L206.692 20.1835L205.535 20.3614L205.891 21.4758L206.844 21.1719ZM212.961 40.3438L213.932 40.1052L213.924 40.0722L213.914 40.0398L212.961 40.3438ZM213.289 41.6797L212.318 41.9182L212.505 42.6797H213.289V41.6797ZM213.43 41.6797V42.6797H214.218L214.402 41.9137L213.43 41.6797ZM213.734 40.4141L212.779 40.1196L212.769 40.1495L212.762 40.18L213.734 40.4141ZM219.664 21.1719L220.62 21.4664L220.97 20.3311L219.791 20.18L219.664 21.1719ZM216.008 20.7031H215.008V21.5831L215.881 21.695L216.008 20.7031ZM216.008 15.875V14.875H215.008V15.875H216.008ZM230.305 15.875H231.305V14.875H230.305V15.875ZM230.305 20.7031L230.417 21.6968L231.305 21.5968V20.7031H230.305ZM226.977 21.0781L226.865 20.0844L226.228 20.1561L226.027 20.7642L226.977 21.0781ZM217.414 50V51H218.137L218.364 50.3139L217.414 50ZM209.446 49.6534L198.758 20.7315L196.882 21.4247L207.57 50.3466L209.446 49.6534ZM197.935 20.0848L194.701 19.7098L194.471 21.6965L197.705 22.0715L197.935 20.0848ZM195.586 20.7031V15.875H193.586V20.7031H195.586ZM194.586 16.875H209.891V14.875H194.586V16.875ZM208.891 15.875V20.7031H210.891V15.875H208.891ZM209.739 19.7148L206.692 20.1835L206.996 22.1602L210.043 21.6915L209.739 19.7148ZM205.891 21.4758L212.008 40.6477L213.914 40.0398L207.796 20.8679L205.891 21.4758ZM211.99 40.5823L212.318 41.9182L214.26 41.4412L213.932 40.1052L211.99 40.5823ZM213.289 42.6797H213.43V40.6797H213.289V42.6797ZM214.402 41.9137L214.707 40.6481L212.762 40.18L212.457 41.4456L214.402 41.9137ZM214.69 40.7086L220.62 21.4664L218.708 20.8774L212.779 40.1196L214.69 40.7086ZM219.791 20.18L216.135 19.7112L215.881 21.695L219.537 22.1638L219.791 20.18ZM217.008 20.7031V15.875H215.008V20.7031H217.008ZM216.008 16.875H230.305V14.875H216.008V16.875ZM229.305 15.875V20.7031H231.305V15.875H229.305ZM230.193 19.7094L226.865 20.0844L227.089 22.0718L230.417 21.6968L230.193 19.7094ZM226.027 20.7642L216.465 49.6861L218.364 50.3139L227.926 21.392L226.027 20.7642ZM217.414 49H208.508V51H217.414V49Z" fill="black" fill-opacity="0.11"/>
</svg>
